<svg id="Capa_1" enable-background="new 0 0 512.095 512.095" height="512" viewBox="0 0 512.095 512.095" width="512" xmlns="http://www.w3.org/2000/svg"><g><g><path clip-rule="evenodd" d="m394.721 9.818c-16.38-3.028-33.192-3.028-49.572 0z" fill="#647b98" fill-rule="evenodd"/></g><g><path clip-rule="evenodd" d="m372.285 487.807c4.153-5.739 3.634-13.842-1.528-19.004l-3.864-3.864-23.503-23.503-3.864-3.864c-5.162-5.162-13.265-5.681-19.004-1.528-.634.433-1.24.952-1.817 1.528-14.361 14.361-14.361 37.662 0 52.052 14.361 14.361 37.691 14.361 52.052 0 .577-.577 1.067-1.182 1.528-1.817z" fill="#fb2a39" fill-rule="evenodd"/></g><g><path clip-rule="evenodd" d="m343.39 441.436 65.058-81.554c3.316-15.255-6.373-30.337-21.657-33.654-15.255-3.316-30.309 6.373-33.654 21.628l-32.616 88.186c5.739-4.153 13.842-3.634 19.004 1.528z" fill="#f8f2f0" fill-rule="evenodd"/></g><g><path clip-rule="evenodd" d="m448.446 399.88c11.045-11.045 11.045-28.953 0-39.998s-28.953-11.045-39.998 0l-65.058 81.554 23.503 23.503z" fill="#f8f2f0" fill-rule="evenodd"/></g><g><path clip-rule="evenodd" d="m343.39 441.436 65.058-81.554c3.288-15.169-6.258-30.136-21.369-33.596 6.2 6.575 9.142 15.976 7.094 25.435l-65.058 81.554c3.778 0 7.556 1.442 10.41 4.297z" fill="#eee1dc" fill-rule="evenodd"/></g><g><path clip-rule="evenodd" d="m366.893 464.939 81.554-65.058c11.045-11.045 11.045-28.953 0-39.998-2.048-2.047-4.326-3.72-6.748-4.989 5.652 10.67 3.98 24.253-5.018 33.25l-81.525 65.03z" fill="#eee1dc" fill-rule="evenodd"/></g><g><path clip-rule="evenodd" d="m372.285 487.807c3.634-5.018 3.691-11.881.173-16.957-.49-.721-1.067-1.413-1.701-2.047l-3.864-3.864-7.815-7.844c5.075 5.162 5.566 13.237 1.471 18.975-.461.634-.98 1.24-1.557 1.788-12.343 12.371-31.289 14.102-45.506 5.22 1.471 2.336 3.201 4.528 5.22 6.546 14.361 14.361 37.691 14.361 52.052 0 .576-.577 1.066-1.182 1.527-1.817z" fill="#e41e2b" fill-rule="evenodd"/></g><g><path clip-rule="evenodd" d="m482.1 421.509c-3.316-15.255-18.399-24.945-33.654-21.628l-81.554 65.058 3.864 3.864c5.162 5.162 5.681 13.265 1.528 19.004l88.186-32.645c15.257-3.316 24.947-18.369 21.63-33.653z" fill="#f8f2f0" fill-rule="evenodd"/></g><g><path clip-rule="evenodd" d="m468.575 409.599c3.316 15.284-6.373 30.337-21.628 33.654l-74.488 27.598c3.518 5.075 3.461 11.939-.173 16.957l88.186-32.645c15.255-3.316 24.945-18.37 21.628-33.654-2.047-9.343-8.478-16.582-16.668-20.042 1.442 2.479 2.509 5.19 3.143 8.132z" fill="#eee1dc" fill-rule="evenodd"/></g><g><path clip-rule="evenodd" d="m195.307 289.864-88.244 88.272 3.316 23.33 23.532 3.519 88.273-88.244-4.441-20.62z" fill="#f8f2f0" fill-rule="evenodd"/></g><g><path clip-rule="evenodd" d="m195.307 289.864 26.877 26.877 57.964-27.223c-13.15-29.876-30.28-50.899-57.618-57.618z" fill="#7ca2b1" fill-rule="evenodd"/></g><g><path clip-rule="evenodd" d="m394.721 9.818c-16.38-3.028-33.192-3.028-49.572 0-25.868 4.787-50.582 17.13-70.48 37.028l-26.444 26.444c-29.761 29.79-42.622 70.336-38.556 109.382 2.307 22.032 9.286 36.595 12.862 49.226 10.064 24.887 28.405 44.612 57.618 57.618 12.631 3.576 27.194 10.555 49.226 12.862 39.047 4.066 79.593-8.796 109.382-38.556l26.444-26.444c52.398-52.398 52.398-138.134 0-190.532-19.898-19.898-44.612-32.24-70.48-37.028zm-119.36 226.868c-12.371-12.4-20.677-27.396-24.858-43.257-5.191-19.639-4.124-40.661 3.23-59.752 4.672-12.141 11.881-23.503 21.628-33.25l13.237-13.208 13.208-13.237c9.747-9.747 21.138-16.957 33.279-21.628 19.062-7.354 40.085-8.449 59.723-3.23 15.89 4.181 30.857 12.487 43.257 24.858 12.371 12.4 20.677 27.367 24.858 43.257 5.22 19.639 4.124 40.661-3.23 59.723-4.672 12.141-11.881 23.532-21.628 33.279l-13.237 13.208-13.208 13.237c-9.747 9.747-21.109 16.957-33.25 21.628-19.091 7.354-40.114 8.421-59.752 3.23-15.861-4.181-30.857-12.486-43.257-24.858z" fill="#f8f2f0" fill-rule="evenodd"/></g><g><path clip-rule="evenodd" d="m133.911 404.985 88.273-88.244-13.439-13.439-88.244 88.244z" fill="#eee1dc" fill-rule="evenodd"/></g><g><path clip-rule="evenodd" d="m465.201 237.379c52.398-52.398 52.398-138.134 0-190.532-.952-.923-1.903-1.874-2.884-2.768-2.221 14.477-6.027 29.905-11.362 45.91 5.479 8.507 9.459 17.735 11.968 27.252 5.22 19.639 4.124 40.661-3.23 59.723-4.672 12.141-11.881 23.532-21.628 33.279l-13.237 13.208-13.208 13.237c-9.747 9.747-21.109 16.957-33.25 21.628-11.535 4.441-23.762 6.604-35.932 6.46-11.766 12.198-23.734 23.301-35.788 33.25 6.662 1.846 14.131 3.461 22.724 4.354 39.047 4.066 79.593-8.796 109.382-38.556z" fill="#eee1dc" fill-rule="evenodd"/></g><g><path clip-rule="evenodd" d="m208.745 303.302 13.438 13.438 57.964-27.223c-7.094-3.172-13.525-6.719-19.379-10.641l-42.449 19.927z" fill="#668d97" fill-rule="evenodd"/></g><g><path clip-rule="evenodd" d="m107.063 378.136 26.848 26.848c4.412 4.412 4.412 11.651 0 16.034l-74.661 74.662c-11.795 11.824-31.087 11.824-42.882 0-11.824-11.795-11.824-31.087 0-42.882l74.661-74.661c4.383-4.413 11.622-4.413 16.034-.001z" fill="#7ca2b1" fill-rule="evenodd"/></g><g><path clip-rule="evenodd" d="m64.016 399.601h36.175v60.685h-36.175z" fill="#fb2a39" fill-rule="evenodd" transform="matrix(.707 -.707 .707 .707 -279.969 183.984)"/></g><g><path clip-rule="evenodd" d="m77.331 450.75-31.491 31.52c-9.459 9.43-23.734 11.333-35.125 5.623 1.413 2.826 3.288 5.45 5.652 7.786 11.795 11.824 31.087 11.824 42.882 0l31.52-31.491z" fill="#668d97" fill-rule="evenodd"/></g><g><path clip-rule="evenodd" d="m78.753 435.178h36.175v19.005h-36.175z" fill="#e41e2b" fill-rule="evenodd" transform="matrix(.707 -.707 .707 .707 -286.072 198.72)"/></g><g><path clip-rule="evenodd" d="m102.91 425.171 13.438 13.438 17.562-17.591c4.412-4.383 4.412-11.622 0-16.034l-13.41-13.438c2.624 2.653 3.691 6.316 3.172 9.776-.375 2.307-1.413 4.499-3.172 6.287z" fill="#668d97" fill-rule="evenodd"/></g><path d="m489.429 419.916c-3.078-14.157-14.198-24.526-27.522-27.384 4.799-12.751 2.087-27.709-8.157-37.953-10.239-10.239-25.188-12.954-37.935-8.164-.892-4.173-2.534-8.196-4.912-11.894-5.175-8.045-13.173-13.593-22.518-15.621-19.07-4.143-37.994 7.856-42.451 26.815l-31.749 85.844c-.26.237-.532.459-.782.71-17.258 17.258-17.26 45.364 0 62.659 8.362 8.362 19.489 12.968 31.329 12.968 11.841 0 22.967-4.605 31.33-12.968.251-.251.472-.522.709-.782l85.84-31.776c18.957-4.429 30.964-23.349 26.818-42.454zm-46.286-54.731c8.034 8.034 8.091 21.056.195 29.176l-75.882 60.534-14.023-14.023 60.534-75.882c8.12-7.896 21.142-7.839 29.176.195zm-82.972-14.727c.12-.325.218-.657.292-.995 2.456-11.202 13.551-18.337 24.737-15.905 5.432 1.179 10.079 4.402 13.086 9.078 2.715 4.221 3.781 9.164 3.096 14.077l-58.755 73.652c-3.039-2.339-6.598-3.827-10.398-4.357zm-36.158 133.868c-11.418-11.441-11.42-30.036-.005-41.451.235-.235.485-.442.742-.638.013-.009.026-.02.039-.029 1.278-.958 2.8-1.445 4.326-1.445 1.85 0 3.699.704 5.107 2.112l3.911 3.911.008.008 23.468 23.468.017.017 3.842 3.842c1.348 1.341 2.092 3.143 2.094 5.074.002 1.493-.442 2.911-1.263 4.106-.051.068-.103.136-.152.206-.211.285-.437.561-.692.816-11.428 11.424-30.021 11.424-41.442.003zm134.865-36.492c-.343.074-.681.173-1.01.295l-75.547 27.966c-.529-3.807-2.019-7.368-4.354-10.397l73.643-58.748c10.653-1.48 20.841 5.478 23.16 16.149 2.432 11.205-4.697 22.302-15.892 24.735z"/><g><path d="m470.504 41.543c-26.758-26.759-62.475-41.496-100.569-41.496s-73.811 14.737-100.569 41.496c-2.929 2.929-2.929 7.678 0 10.606 2.929 2.929 7.678 2.929 10.606 0 49.605-49.605 130.32-49.605 179.926 0 49.605 49.606 49.605 130.32 0 179.926l-26.442 26.442c-27.168 27.143-64.824 40.412-103.301 36.402-15.13-1.584-26.541-5.495-36.607-8.945-3.763-1.29-7.327-2.511-10.824-3.521-25.906-11.649-43.281-28.996-53.094-53.003-1.017-3.538-2.252-7.143-3.558-10.951-3.45-10.067-7.361-21.477-8.945-36.604-4.008-38.483 9.261-76.136 36.402-103.305 2.928-2.931 2.925-7.679-.005-10.606s-7.679-2.925-10.606.005c-30.35 30.379-45.188 72.462-40.71 115.464 1.761 16.823 6.149 29.624 9.674 39.909.949 2.769 1.857 5.422 2.642 7.939l-25.449 54.186-34.081 34.081c-2.929 2.929-2.929 7.678 0 10.606 2.929 2.929 7.678 2.929 10.606 0l29.706-29.706 16.27 16.27-77.665 77.64-16.245-16.245 23.973-23.996c2.927-2.931 2.925-7.679-.005-10.606s-7.679-2.925-10.607.005l-25.077 25.101c-2.172-.852-4.505-1.31-6.915-1.31-.01 0-.021 0-.032 0-5.044.008-9.766 1.97-13.278 5.506l-74.655 74.655c-7.138 7.121-11.07 16.621-11.07 26.75s3.932 19.629 11.058 26.738c7.122 7.139 16.622 11.071 26.751 11.071s19.629-3.932 26.744-11.064l74.645-74.644c3.553-3.53 5.515-8.252 5.523-13.296.004-2.421-.454-4.767-1.311-6.949l83.149-83.122 54.187-25.449c2.517.784 5.17 1.693 7.939 2.642 10.286 3.525 23.086 7.913 39.913 9.674 5.044.525 10.069.785 15.071.785 37.633-.001 73.574-14.706 100.392-41.497l26.444-26.444c55.453-55.455 55.453-145.686-.001-201.14zm-416.565 448.84c-4.287 4.298-10.016 6.665-16.13 6.665-6.115 0-11.844-2.367-16.145-6.677-4.297-4.288-6.664-10.017-6.664-16.133 0-6.115 2.367-11.844 6.671-16.137l26.202-26.202 32.275 32.275zm36.816-36.815-32.275-32.276 14.973-14.973 32.275 32.275zm37.853-37.853-12.274 12.274-32.275-32.275 12.291-12.291c.944-.951 2.083-1.094 2.679-1.095h.006c.605 0 1.758.146 2.725 1.112l26.848 26.848c.97.97 1.113 2.127 1.112 2.731-.001.595-.144 1.734-1.112 2.696zm95.155-108.002-19.428-19.428 18.349-39.071c9.56 16.401 23.123 29.774 40.497 39.986z"/><path d="m270.057 241.989s0 .001 0 0c.001.001.001.001 0 0l.003.003c20.253 20.237 46.849 30.355 73.442 30.355s53.185-10.119 73.422-30.357l26.444-26.444c40.491-40.491 40.491-106.375 0-146.866-19.534-19.534-45.613-30.292-73.433-30.292s-53.898 10.758-73.433 30.292l-26.445 26.444c-40.474 40.475-40.476 106.356 0 146.865zm-12.889-94.27 14.219 14.219-16.165 16.165c-1.087-10.139-.434-20.428 1.946-30.384zm1.746 47.906 23.08-23.08 23.451 23.451-29.842 29.842c-7.684-9.101-13.246-19.387-16.689-30.213zm108.405-40.29 30.069-30.069 23.451 23.451-30.069 30.069zm12.845 34.057-30.055 30.055-23.451-23.451 30.055-30.055zm-23.451-44.664-23.451-23.451 30.069-30.069 23.451 23.451zm-10.607 10.607-30.055 30.055-23.451-23.451 30.055-30.055zm-59.897 81.109 29.842-29.842 23.451 23.451-23.081 23.081c-10.822-3.449-21.113-9.008-30.212-16.69zm57.291 20.911c-3.19 0-6.378-.192-9.553-.533l16.162-16.162 14.231 14.231c-6.841 1.638-13.839 2.465-20.84 2.464zm62.817-25.972c-7.79 7.789-16.683 13.811-26.176 18.096l-19.425-19.425 30.055-30.055 23.466 23.466zm26.444-26.444-7.919 7.919-23.466-23.466 30.069-30.069 19.421 19.421c-4.285 9.5-10.31 18.4-18.105 26.195zm23.518-41.997-14.226-14.226 16.163-16.163c1.091 10.139.448 20.43-1.937 30.389zm-1.757-47.908-23.076 23.076-23.451-23.451 29.829-29.829c7.686 9.096 13.25 19.384 16.698 30.204zm-27.304-40.811-29.829 29.829-23.451-23.451 23.074-23.074c10.825 3.445 21.108 9.009 30.206 16.696zm-57.283-20.919c3.191 0 6.38.189 9.557.53l-16.161 16.161-14.226-14.226c6.838-1.638 13.834-2.465 20.83-2.465zm-62.826 25.982c7.795-7.795 16.695-13.819 26.194-18.106l19.421 19.421-30.069 30.069-23.465-23.465zm-26.445 26.445 7.919-7.919 23.466 23.466-30.055 30.055-19.427-19.427c4.281-9.495 10.308-18.386 18.097-26.175z"/></g></g></svg>