<svg height="512" viewBox="0 0 512 512" width="512" xmlns="http://www.w3.org/2000/svg"><g id="filled_outline" data-name="filled outline"><path d="m48 440h344a0 0 0 0 1 0 0v48a0 0 0 0 1 0 0h-344a24 24 0 0 1 -24-24 24 24 0 0 1 24-24z" fill="#0296e5"/><g fill="#cbcbcb"><circle cx="48" cy="464" r="24"/><circle cx="304" cy="464" r="24"/><circle cx="176" cy="464" r="24"/><path d="m264 408 8 32 64-16-8-24h-32z"/></g><path d="m112 392 72-48 27.121-63.283-27.121-40.717-24 72-64 56z" fill="#d8595a"/><path d="m96 368-24 8-8 16 24 40 24-8v-32z" fill="#cbcbcb"/><path d="m262 181 24 3-5 24h-22l-27-16v-48z" fill="#fdc9a6"/><path d="m243 157.57-4.57 5.09v33.15l-6.43-3.81v-32l5.85-8.78z" fill="#fdc9a6"/><path d="m240 40v34a6 6 0 0 1 -6 6h-10v16h-32v-56l16-16h10.4a22 22 0 0 1 19.678 12.161z" fill="#fdc9a6"/><path d="m208 24-16 16v16l-8 5.33v-21.33l16-16z" fill="#ea9d2d"/><path d="m488 488h-96v-48l40-48h32l24 32z" fill="#026ca2"/><path d="m408 224h-40l64 64v104h32v-112z" fill="#0296e5"/><path d="m416 232h-40l-8-8h40z" fill="#0296e5"/><path d="m336 192v32h120l32-72-32-8-24 48z" fill="#0296e5"/><path d="m48 496a32 32 0 1 1 32-32 32.036 32.036 0 0 1 -32 32zm0-48a16 16 0 1 0 16 16 16.019 16.019 0 0 0 -16-16z" fill="#026ca2"/><path d="m304 496a32 32 0 1 1 32-32 32.036 32.036 0 0 1 -32 32zm0-48a16 16 0 1 0 16 16 16.019 16.019 0 0 0 -16-16z" fill="#026ca2"/><path d="m176 496a32 32 0 1 1 32-32 32.036 32.036 0 0 1 -32 32zm0-48a16 16 0 1 0 16 16 16.019 16.019 0 0 0 -16-16z" fill="#026ca2"/><path d="m208 24h-15.029a40.971 40.971 0 0 0 -28.971 12 40.971 40.971 0 0 1 -28.971 12h-23.029l12 12a40.971 40.971 0 0 0 28.971 12h2.629a40.966 40.966 0 0 0 22.726-6.881l13.674-9.119v-16z" fill="#fbb540"/><path d="m216 24-16.385 8.385a26 26 0 0 0 -7.615 18.385v5.23l-8 5.33v-10.56a26 26 0 0 1 7.615-18.385l3.868-2.849a28.42 28.42 0 0 1 16.853-5.536z" fill="#ea9d2d"/><path d="m184 176h48v32h-48z" fill="#fdc9a6"/><path d="m208 184-8 24h-16v-32z" fill="#fdc9a6"/><path d="m232 176v-16l8.277-12.416a22 22 0 0 0 .56-23.522l-16.837-28.062h-40v80z" fill="#ff6268"/><path d="m208 184-8 24h-16v-32z" fill="#f6bb92"/><path d="m184 208a61.076 61.076 0 0 0 3.314 46.627l4.686 9.373 40 56 5.435 21.739a131.972 131.972 0 0 0 6.731 19.983l19.834 46.278 32-8-24-88-40-80v-24z" fill="#ff6268"/><path d="m169.373 102.627-35.515 35.515a20 20 0 0 0 -5.858 14.142v.475a20 20 0 0 0 4.636 12.8l35.364 42.441h24l8-24-24-8-16-24 16-16 8 8 24-8v-17.373a22.628 22.628 0 0 0 -22.627-22.627 22.627 22.627 0 0 0 -16 6.627z" fill="#fdc9a6"/><path d="m243 157.57-4.57 5.09v33.15l-6.43-3.81v-32l5.85-8.78z" fill="#f6bb92"/><path d="m224 80-16-16 8 16z" fill="#f6bb92"/><path d="m416 232h-40l-8-8h40z" fill="#026ca2"/><path d="m192 64h16l8-16 24-8-1.919-3.839a22 22 0 0 0 -19.681-12.161 25.115 25.115 0 0 0 -17.759 7.356l-1.029 1.029a26 26 0 0 0 -7.612 18.385z" fill="#fbb540"/><path d="m472 389.333v-109.333a8 8 0 0 0 -2.343-5.657l-42.343-42.343h28.686a8 8 0 0 0 7.311-4.751l32-72a8 8 0 0 0 -5.371-11.01l-32-8a8 8 0 0 0 -9.095 4.183l-21.789 43.578h-91.056a8 8 0 0 0 -8 8v32a8 8 0 0 0 8 8h28.686l59.314 59.314v97.786l-35.747 42.9h-51.268l.955-.239a8 8 0 0 0 5.65-10.291l-8-24a8 8 0 0 0 -7.59-5.47h-25.89l-22.392-82.1a8.031 8.031 0 0 0 -.563-1.473l-39.155-78.316v-24.071l14.922 8.842a7.991 7.991 0 0 0 4.078 1.118h22a8 8 0 0 0 7.832-6.368l5-24a8 8 0 0 0 -6.84-9.57l-20.805-2.6-18.447-22.75a30.131 30.131 0 0 0 -.043-30.765l-15.697-26.164v-5.783h2a14.015 14.015 0 0 0 14-14v-29.708a26.315 26.315 0 0 0 -2.764-11.709 29.813 29.813 0 0 0 -25.506-16.537 5 5 0 0 0 -.73-.046h-26.029a48.653 48.653 0 0 0 -34.628 14.343 32.756 32.756 0 0 1 -23.314 9.657h-23.029a8 8 0 0 0 -5.657 13.657l12 12a48.653 48.653 0 0 0 34.628 14.343h2.629a48.809 48.809 0 0 0 27.164-8.225l1.236-.827v17.052a8.015 8.015 0 0 0 -1.378.127 30.391 30.391 0 0 0 -18.906 8.844l-35.516 35.515a27.818 27.818 0 0 0 -8.2 19.8v.475a28.053 28.053 0 0 0 6.49 17.925l35.364 42.438a8 8 0 0 0 6.146 2.876h5.8a68.294 68.294 0 0 0 .825 26.841l-21.525 64.569-61.156 53.509-22.474 7.492a7.994 7.994 0 0 0 -4.625 4.011l-8 16a8 8 0 0 0 .3 7.694l21.525 35.884h-30.67a32 32 0 0 0 0 64h440a8 8 0 0 0 8-8v-64a8 8 0 0 0 -1.6-4.8zm-232-222.764 15.786 19.47a8 8 0 0 0 5.222 2.9l15.39 1.924-1.898 9.137h-13.3l-21.2-12.559zm24.49 148.3 21.642 79.352-17.463 4.365-17.149-40.015a124.53 124.53 0 0 1 -6.32-18.771l-5.434-21.738a8 8 0 0 0 -1.251-2.71l-39.635-55.489-4.406-8.811a53.588 53.588 0 0 1 -3.757-9.837c-.037-.149-.078-.3-.124-.442a52.538 52.538 0 0 1 -.514-24.773h33.921v16a7.994 7.994 0 0 0 .845 3.578zm-2.736 117.131h-148.454l1.232-.411a8 8 0 0 0 5.468-7.589v-27.719l68.438-45.625a8 8 0 0 0 2.916-3.5l18.828-43.933 14.425 20.2 5.067 20.266a140.57 140.57 0 0 0 7.138 21.193l19.588 45.684zm-58.654-232s4.9-15.161 4.9-16h16v16zm30.877-71.823a14.027 14.027 0 0 1 1.881 8.841 7.973 7.973 0 0 0 -11.858 6.982v24h-32v-18.234l18.53-6.177a8 8 0 0 0 5.47-7.589v-17.373a30.439 30.439 0 0 0 -3.725-14.627h7.2zm-33.977-77.407a17.883 17.883 0 0 1 5.273-12.73l1.028-1.027a17 17 0 0 1 12.099-5.013 13.935 13.935 0 0 1 9.081 3.336l-15.223 5.075a8 8 0 0 0 -4.626 4.011l-5.786 11.578h-1.846zm0 21.23h6.79a8 8 0 0 0 7.155-4.422l6.519-13.036 11.536-3.842v21.3h-8a8 8 0 0 0 -8 8v8h-16zm-26.116-13.537a32.871 32.871 0 0 1 -18.284 5.537h-2.624a32.725 32.725 0 0 1 -21.533-8h3.591a48.653 48.653 0 0 0 34.628-14.343 32.72 32.72 0 0 1 19.869-9.477 33.764 33.764 0 0 0 -5.531 18.59v.949zm-2.137 141.537-32.966-39.559a12.026 12.026 0 0 1 -2.781-7.682v-.475a11.919 11.919 0 0 1 3.515-8.485l35.515-35.515a14.627 14.627 0 0 1 24.97 10.343v11.607l-13.839 4.613-4.5-4.5a8 8 0 0 0 -11.314 0l-16 16a8 8 0 0 0 -1 10.095l16 24a7.991 7.991 0 0 0 4.126 3.151l16.411 5.471-3.65 10.936zm4.253-52.686v14.264l-5.706-8.558zm-10.732 170.707a8 8 0 0 0 2.322-3.491l16.292-48.877.963 1.925a7.874 7.874 0 0 0 .645 1.072l13.81 19.336-21.718 50.677-63.365 42.243-7.669-11.506zm-92.149 73.629 4.555-9.108 15.059-5.02 11.267 16.9v23.812l-12.441 4.147zm-25.119 88.35a16 16 0 1 1 16-16 16.019 16.019 0 0 1 -16 16zm100.305 0h-72.61a31.885 31.885 0 0 0 0-32h72.61a31.885 31.885 0 0 0 0 32zm27.695 0a16 16 0 1 1 16-16 16.019 16.019 0 0 1 -16 16zm100.305 0h-72.605a31.885 31.885 0 0 0 0-32h68.253.046.032 4.279a31.885 31.885 0 0 0 0 32zm27.695 0a16 16 0 1 1 16-16 16.019 16.019 0 0 1 -16 16zm-26.179-49.7-4.12-16.477 23.284-5.823h25.249l3.445 10.334zm106.179 49.7h-52.3a31.885 31.885 0 0 0 0-32h52.3zm-40-264v-16h88a8 8 0 0 0 7.155-4.422l21.13-42.261 16.537 4.135-26.022 58.548zm43.313 16h17.374l51.313 51.314v100.686h-16v-96a8 8 0 0 0 -2.343-5.657zm92.687 248h-80v-37.1l35.747-42.9h24.253l20 26.667z"/></g></svg>