<svg id="icons" enable-background="new 0 0 64 64" height="512" viewBox="0 0 64 64" width="512" xmlns="http://www.w3.org/2000/svg"><g><path d="m51 50h7v12h-7z" fill="#656d78"/></g><g><path d="m58 47h2v3h-2-7-2v-3h2.01z" fill="#e6e9ed"/></g><g><path d="m56 31 2 16h-6.99l2-16z" fill="#ccd1d9"/></g><g><path d="m28.01 3.3v9.7h-6v-9.69-1.31h6z" fill="#ed5565"/></g><g><path d="m42.5 20.01v-.01c.83 0 1.5.68 1.5 1.5 0 .83-.67 1.5-1.5 1.5h-2.5-30-2.49v.01c-.83 0-1.5-.68-1.5-1.5 0-.83.67-1.5 1.5-1.5h2.53 10.97 19.03z" fill="#ed5565"/></g><g><path d="m28.01 3.3v9.7h1v7h-8v-7h1v-9.69h-.01c-6.82 1.4-11.96 7.45-11.96 14.69v2 .01h10.97 19.03v-2.01c0-7.27-5.17-13.33-12.03-14.7z" fill="#da4453"/></g><g><path d="m29.01 13v7h-8v-7h1 6z" fill="#ffce54"/></g><g><path d="m25.01 48v3l-7.01-4v-3z" fill="#e6e9ed"/></g><g><path d="m40 23.01v4.99c0 5.75-3.24 10.75-8 13.27-2.09 1.1-4.47 1.73-7 1.73s-4.91-.63-7-1.73c-4.76-2.52-8-7.52-8-13.27v-5h30z" fill="#eac6bb"/></g><g><path d="m35.996 23v.01 4.99c0 5.75-3.24 10.75-8 13.27-1.528.805-3.214 1.354-4.998 1.594.655.087 1.322.136 2.002.136 2.53 0 4.91-.63 7-1.73 4.76-2.52 8-7.52 8-13.27v-4.99-.01z" fill="#d3b1a9"/></g><g><path d="m25.01 48 6.99-4v3l-6.99 4z" fill="#e6e9ed"/></g><g><path d="m25 43c2.53 0 4.91-.63 7-1.73v2.73l-6.99 4-7.01-4v-2.73c2.09 1.1 4.47 1.73 7 1.73z" fill="#eac6bb"/></g><g><path d="m12.01 61v1h-8.01v-7c0-4.42 3.58-8 8-8h6l7.01 4v7h-13z" fill="#656d78"/></g><g><path d="m38.01 58h-13v-7l6.99-4h6c4.42 0 8 3.58 8 8v7h-7.99v-1z" fill="#656d78"/></g><g><path d="m38 47h-4.004c4.42 0 8 3.58 8 8v7h4.004v-7c0-4.42-3.58-8-8-8z" fill="#545c66"/></g><g><path d="m25.01 61h13v1h-13z" fill="#656d78"/></g><g><path d="m25.01 58h13v3h-13z" fill="#ffce54"/></g><g><path d="m12.01 58h13v3h-13z" fill="#ffce54"/></g><g><path d="m12.01 61h13v1h-13z" fill="#656d78"/></g><g><path d="m3.998 55.999c-.553 0-1-.447-1-1 0-4.963 4.037-9 9-9 .553 0 1 .447 1 1s-.447 1-1 1c-3.859 0-7 3.141-7 7 0 .553-.447 1-1 1z"/></g><g><path d="m45.998 56c-.553 0-1-.447-1-1 0-3.859-3.141-7-7-7-.553 0-1-.447-1-1s.447-1 1-1c4.963 0 9 4.037 9 9 0 .553-.447 1-1 1z"/></g><g><path d="m17.998 48-6-.001c-.553 0-1-.448-1-1 0-.553.448-1 1-1l6 .001c.553 0 1 .448 1 1 0 .553-.448 1-1 1z"/></g><g><path d="m37.998 48-6-.002c-.553 0-1-.448-1-1 0-.553.448-1 1-1l6 .002c.553 0 1 .448 1 1 0 .553-.448 1-1 1z"/></g><g><path d="m3.999 62.998c-.552 0-1-.447-1-1l-.001-6.999c0-.552.447-1 1-1 .552 0 1 .447 1 1l.001 6.999c0 .552-.447 1-1 1z"/></g><g><path d="m45.998 62.998c-.553 0-1-.447-1-1v-6.998c0-.553.447-1 1-1s1 .447 1 1v6.998c0 .553-.447 1-1 1z"/></g><g><path d="m17.998 48c-.553 0-1-.447-1-1v-5.731c0-.553.447-1 1-1s1 .447 1 1v5.731c0 .553-.447 1-1 1z"/></g><g><path d="m31.998 47.998c-.553 0-1-.447-1-1v-5.729c0-.553.447-1 1-1s1 .447 1 1v5.729c0 .553-.447 1-1 1z"/></g><g><path d="m24.998 43.999c-8.822 0-16-7.178-16-16 0-.553.447-1 1-1s1 .447 1 1c0 7.72 6.28 14 14 14s14-6.28 14-14c0-.553.447-1 1-1s1 .447 1 1c0 8.822-7.178 16-16 16z"/></g><g><path d="m9.998 28.999c-.553 0-1-.447-1-1v-4.995c0-.553.447-1 1-1s1 .447 1 1v4.995c0 .553-.447 1-1 1z"/></g><g><path d="m39.998 28.999c-.553 0-1-.447-1-1v-4.992c0-.553.447-1 1-1s1 .447 1 1v4.992c0 .553-.447 1-1 1z"/></g><g><path d="m7.508 24.006c-1.379 0-2.5-1.121-2.5-2.5s1.121-2.5 2.5-2.5c.553 0 1 .447 1 1s-.447 1-1 1c-.275 0-.5.225-.5.5s.225.5.5.5c.553 0 1 .447 1 1s-.447 1-1 1z"/></g><g><path d="m42.505 24.005c-.553 0-1-.447-1-1s.447-1 1-1c.275 0 .5-.225.5-.5s-.225-.5-.5-.5c-.553 0-1-.447-1-1s.447-1 1-1c1.379 0 2.5 1.121 2.5 2.5s-1.121 2.5-2.5 2.5z"/></g><g><path d="m42.505 21.006h-34.997c-.553 0-1-.447-1-1s.447-1 1-1h34.997c.553 0 1 .447 1 1s-.447 1-1 1z"/></g><g><path d="m42.505 24.005h-34.997c-.553 0-1-.447-1-1s.447-1 1-1h34.997c.553 0 1 .447 1 1s-.447 1-1 1z"/></g><g><path d="m40.043 19.003c-.553 0-1-.447-1-1 0-6.648-4.723-12.421-11.229-13.727-.542-.108-.893-.636-.784-1.177.109-.542.634-.897 1.177-.784 7.438 1.492 12.837 8.09 12.837 15.688-.001.553-.448 1-1.001 1z"/></g><g><path d="m10.043 19.003c-.553 0-1-.447-1-1 0-7.56 5.366-14.151 12.761-15.672.54-.108 1.069.237 1.181.778s-.237 1.069-.778 1.181c-6.468 1.33-11.163 7.098-11.163 13.713-.001.553-.448 1-1.001 1z"/></g><g><path d="m10.043 21.001c-.553 0-1-.447-1-1v-1.998c0-.553.447-1 1-1s1 .447 1 1v1.998c0 .553-.447 1-1 1z"/></g><g><path d="m40.043 21.006c-.553 0-1-.447-1-1v-2.003c0-.553.447-1 1-1s1 .447 1 1v2.003c0 .553-.447 1-1 1z"/></g><g><path d="m28.007 13.999h-6c-.553 0-1-.447-1-1v-10.998c0-.553.447-1 1-1h6c.553 0 1 .447 1 1v10.998c0 .553-.447 1-1 1zm-5-2h4v-8.998h-4z"/></g><g><path d="m29.006 21h-8c-.553 0-1-.447-1-1v-6.998c0-.553.447-1 1-1h8c.553 0 1 .447 1 1v6.998c0 .553-.447 1-1 1zm-7-2h6v-4.998h-6z"/></g><g><path d="m25.007 51.999c-.347 0-.685-.181-.869-.503-.274-.479-.107-1.091.371-1.365l6.992-4.001c.482-.275 1.091-.107 1.365.371.274.479.107 1.091-.371 1.365l-6.992 4.001c-.157.09-.328.132-.496.132z"/></g><g><path d="m25.007 48.999c-.347 0-.685-.181-.869-.503-.274-.479-.107-1.091.371-1.365l6.992-4.001c.482-.275 1.091-.107 1.365.371.274.479.107 1.091-.371 1.365l-6.992 4.001c-.157.09-.328.132-.496.132z"/></g><g><path d="m25.005 51.999c-.168 0-.338-.042-.495-.132l-7.008-3.999c-.479-.273-.646-.884-.372-1.364.273-.48.881-.648 1.364-.372l7.008 3.999c.479.273.646.884.372 1.364-.185.323-.521.504-.869.504z"/></g><g><path d="m25.005 48.998c-.168 0-.338-.042-.495-.132l-7.008-3.999c-.479-.273-.646-.884-.372-1.364.273-.48.881-.648 1.364-.372l7.008 3.999c.479.273.646.884.372 1.364-.185.323-.521.504-.869.504z"/></g><g><path d="m25.006 62.999c-.553 0-1-.447-1-1v-14c0-.553.447-1 1-1s1 .447 1 1v14c0 .553-.447 1-1 1z"/></g><g><path d="m38.006 62.999c-.553 0-1-.447-1-1v-5.001c0-.553.447-1 1-1s1 .447 1 1v5.001c0 .553-.447 1-1 1z"/></g><g><path d="m12.007 62.999c-.553 0-1-.447-1-1v-5.001c0-.553.447-1 1-1s1 .447 1 1v5.001c0 .553-.447 1-1 1z"/></g><g><path d="m38.006 58.999h-25.999c-.553 0-1-.447-1-1s.447-1 1-1h25.999c.553 0 1 .447 1 1s-.447 1-1 1z"/></g><g><path d="m38.006 61.999h-25.999c-.553 0-1-.447-1-1s.447-1 1-1h25.999c.553 0 1 .447 1 1s-.447 1-1 1z"/></g><g><path d="m60.002 50.999h-10.997c-.553 0-1-.447-1-1v-2.999c0-.553.447-1 1-1h10.997c.553 0 1 .447 1 1v2.999c0 .553-.447 1-1 1zm-9.997-2h8.997v-.999h-8.997z"/></g><g><path d="m58.001 48h-6.995c-.287 0-.56-.123-.75-.338-.189-.216-.278-.502-.242-.786l2.002-16.006c.063-.5.488-.876.992-.876h2.991c.504 0 .93.376.992.876l2.002 16.006c.036.284-.053.57-.242.786-.19.215-.463.338-.75.338zm-5.862-2h4.729l-1.752-14.006h-1.226z"/></g><g><path d="m57.003 31.997h-4.999c-.553 0-1-.447-1-1s.447-1 1-1h4.999c.553 0 1 .447 1 1s-.447 1-1 1z"/></g><g><path d="m51.004 62.998c-.553 0-1-.447-1-1v-11.999c0-.553.447-1 1-1s1 .447 1 1v11.999c0 .553-.447 1-1 1z"/></g><g><path d="m58.003 62.998c-.553 0-1-.447-1-1v-11.999c0-.553.447-1 1-1s1 .447 1 1v11.999c0 .553-.447 1-1 1z"/></g></svg>