<?xml version="1.0" encoding="iso-8859-1"?>
<!-- Generator: Adobe Illustrator 19.0.0, SVG Export Plug-In . SVG Version: 6.00 Build 0)  -->
<svg version="1.1" id="Capa_1" xmlns="http://www.w3.org/2000/svg" xmlns:xlink="http://www.w3.org/1999/xlink" x="0px" y="0px"
	 viewBox="0 0 496 496" style="enable-background:new 0 0 496 496;" xml:space="preserve">
<path style="fill:#F9E0A6;" d="M248,312L248,312c-61.856,0-112-50.144-112-112v-48c0-61.856,50.144-112,112-112l0,0
	c61.856,0,112,50.144,112,112v48C360,261.856,309.856,312,248,312z"/>
<g>
	<path style="fill:#39C3FC;" d="M208,224h-16c-13.256,0-24-10.744-24-24l0,0c0-13.256,10.744-24,24-24h16c13.256,0,24,10.744,24,24
		l0,0C232,213.256,221.256,224,208,224z"/>
	<path style="fill:#39C3FC;" d="M304,224h-16c-13.256,0-24-10.744-24-24l0,0c0-13.256,10.744-24,24-24h16c13.256,0,24,10.744,24,24
		l0,0C328,213.256,317.256,224,304,224z"/>
</g>
<path style="fill:#FEA82F;" d="M248,40c-61.856,0-112,50.144-112,112h224C360,90.144,309.856,40,248,40z"/>
<path style="fill:#FF8031;" d="M138.64,128c-1.688,7.736-2.64,15.752-2.64,24h224c0-8.248-0.952-16.264-2.64-24H138.64z"/>
<g>
	<path style="fill:#39C3FC;" d="M407.96,307.2c-40.016,0-40.016-38.4-80.04-38.4c-39.992,0-39.992,38.4-79.984,38.4
		c-40,0-40-38.4-80.008-38.4c-39.992,0-39.992,38.4-79.976,38.4c-39.976,0-39.976-38.4-79.96-38.4V472h480V268.8
		C447.984,268.8,447.984,307.2,407.96,307.2z"/>
	<path style="fill:#39C3FC;" d="M452,200L452,200c11.048,0,20,8.952,20,20l0,0c0,11.048-8.952,20-20,20l0,0
		c-18.496,0-36.824,3.528-54,10.4l-14,5.6l6.664-15.56C401.184,215.904,425.304,200,452,200z"/>
	<path style="fill:#39C3FC;" d="M400,176v-24.296c0-15.76,1.56-31.488,4.648-46.944l0,0C406.6,95.016,415.152,88,425.088,88h2.064
		C438.664,88,448,97.336,448,108.848l0,0c0,6.968-3.48,13.48-9.28,17.344l0,0c-9.688,6.464-17.824,14.992-23.816,24.984L400,176z"/>
	<path style="fill:#39C3FC;" d="M28,200L28,200c-11.048,0-20,8.952-20,20l0,0c0,11.048,8.952,20,20,20l0,0
		c18.496,0,36.824,3.528,54,10.4l14,5.6l-6.664-15.56C78.816,215.904,54.696,200,28,200z"/>
	<path style="fill:#39C3FC;" d="M80,176v-24.296c0-15.76-1.56-31.488-4.648-46.944l0,0C73.4,95.016,64.848,88,54.912,88h-2.064
		C41.336,88,32,97.336,32,108.848l0,0c0,6.968,3.48,13.48,9.28,17.344l0,0c9.688,6.464,17.824,14.992,23.816,24.984L80,176z"/>
</g>
<path d="M383.32,237.296L369.04,270.6l31.936-12.776C417.28,251.304,434.448,248,452,248c15.44,0,28-12.56,28-28s-12.56-28-28-28
	C422.064,192,395.104,209.784,383.32,237.296z M464,220c0,6.616-5.384,12-12,12c-18.184,0-35.992,3.176-53.008,9.456
	C408.712,221.056,429.264,208,452,208C458.616,208,464,213.384,464,220z"/>
<path d="M443.16,132.84c8.04-5.368,12.84-14.336,12.84-24C456,92.936,443.064,80,427.16,80h-2.064
	c-13.704,0-25.6,9.752-28.288,23.184c-3.192,15.952-4.808,32.272-4.808,48.52v53.176l29.76-49.592
	C427.104,146.376,434.504,138.608,443.16,132.84z M408.048,147.04c0.28-13.648,1.768-27.328,4.448-40.712
	C413.688,100.344,418.992,96,425.088,96h2.064C434.24,96,440,101.76,440,108.84c0,4.304-2.136,8.296-5.72,10.688
	C423.672,126.6,414.6,136.12,408.048,147.04z"/>
<path d="M28,248c17.552,0,34.72,3.304,51.024,9.832l31.944,12.776l-14.28-33.304C84.896,209.784,57.936,192,28,192
	c-15.44,0-28,12.56-28,28S12.56,248,28,248z M28,208c22.736,0,43.288,13.056,53.008,33.456C63.992,235.176,46.184,232,28,232
	c-6.616,0-12-5.384-12-12S21.384,208,28,208z"/>
<path d="M36.84,132.84c8.656,5.768,16.048,13.528,21.4,22.448L88,204.88v-53.176c0-16.248-1.616-32.568-4.808-48.512
	C80.504,89.752,68.616,80,54.912,80H52.84C36.936,80,24,92.936,24,108.84C24,118.504,28.8,127.48,36.84,132.84z M52.84,96h2.064
	c6.104,0,11.4,4.344,12.6,10.328c2.672,13.384,4.168,27.064,4.448,40.712C65.4,136.12,56.32,126.6,45.72,119.536
	c-3.584-2.392-5.72-6.384-5.72-10.696C40,101.76,45.76,96,52.84,96z"/>
<path d="M442.328,398.344c-9.48,9.48-17.664,17.656-34.36,17.656s-24.88-8.176-34.36-17.656c-10.48-10.48-22.36-22.344-45.68-22.344
	c-23.312,0-35.176,11.864-45.648,22.344c-9.472,9.48-17.648,17.656-34.336,17.656s-24.872-8.176-34.344-17.656
	C203.128,387.864,191.256,376,167.936,376c-23.312,0-35.176,11.864-45.648,22.344C112.824,407.824,104.64,416,87.96,416
	c-16.672,0-24.848-8.176-34.32-17.656C43.168,387.872,31.304,376,8,376H0v16h8c16.672,0,24.848,8.176,34.328,17.656
	C52.792,420.136,64.656,432,87.96,432c23.312,0,35.176-11.864,45.648-22.344c9.472-9.48,17.648-17.656,34.328-17.656
	c16.688,0,24.872,8.176,34.344,17.656C212.76,420.136,224.632,432,247.944,432s35.176-11.864,45.648-22.344
	c9.472-9.48,17.656-17.656,34.336-17.656c16.696,0,24.88,8.176,34.36,17.656c10.48,10.48,22.352,22.344,45.68,22.344
	c23.32,0,35.192-11.864,45.672-22.344C463.12,400.176,471.304,392,488,392h8v-16h-8C464.672,376,452.8,387.864,442.328,398.344z"/>
<path d="M442.328,342.344c-9.48,9.48-17.664,17.656-34.36,17.656s-24.88-8.176-34.36-17.656c-10.48-10.48-22.36-22.344-45.68-22.344
	c-23.312,0-35.176,11.864-45.648,22.344c-9.472,9.48-17.648,17.656-34.336,17.656s-24.872-8.176-34.344-17.656
	C203.128,331.864,191.256,320,167.936,320c-23.312,0-35.176,11.864-45.648,22.344C112.824,351.824,104.64,360,87.96,360
	c-16.672,0-24.848-8.176-34.32-17.656C43.168,331.872,31.304,320,8,320H0v16h8c16.672,0,24.848,8.176,34.328,17.656
	C52.792,364.136,64.656,376,87.96,376c23.312,0,35.176-11.864,45.648-22.344c9.472-9.48,17.648-17.656,34.328-17.656
	c16.688,0,24.872,8.176,34.344,17.656C212.76,364.136,224.632,376,247.944,376s35.176-11.864,45.648-22.344
	c9.472-9.48,17.656-17.656,34.336-17.656c16.696,0,24.88,8.176,34.36,17.656c10.48,10.48,22.352,22.344,45.68,22.344
	c23.32,0,35.192-11.864,45.672-22.344C463.12,344.176,471.304,336,488,336h8v-16h-8C464.672,320,452.8,331.864,442.328,342.344z"/>
<path d="M442.328,286.344c-9.48,9.48-17.664,17.656-34.36,17.656s-24.88-8.176-34.36-17.656c-7.08-7.08-14.896-14.704-26.352-18.968
	C360.816,247.488,368,224.384,368,200v-48c0-66.168-53.832-120-120-120S128,85.832,128,152v48c0,24.368,7.168,47.464,20.72,67.344
	c-11.504,4.248-19.336,11.904-26.432,19C112.824,295.824,104.64,304,87.96,304c-16.672,0-24.848-8.176-34.32-17.656
	C43.168,275.872,31.304,264,8,264H0v16h8c16.672,0,24.848,8.176,34.328,17.656C52.792,308.136,64.656,320,87.96,320
	c23.312,0,35.176-11.864,45.648-22.344c9.472-9.48,17.648-17.656,34.328-17.656c16.688,0,24.872,8.176,34.344,17.656
	C212.76,308.136,224.632,320,247.944,320s35.176-11.864,45.648-22.344c9.472-9.48,17.656-17.656,34.336-17.656
	c16.696,0,24.88,8.176,34.36,17.656c10.48,10.48,22.352,22.344,45.68,22.344c23.32,0,35.192-11.864,45.672-22.344
	C463.12,288.176,471.304,280,488,280h8v-16h-8C464.672,264,452.8,275.864,442.328,286.344z M334.864,192
	c-3.576-13.768-16-24-30.864-24h-16c-14.864,0-27.288,10.232-30.864,24h-18.272c-3.576-13.768-16-24-30.864-24h-16
	c-14.864,0-27.288,10.232-30.864,24H144v-32h208v32H334.864z M320,200c0,8.824-7.176,16-16,16h-16c-8.824,0-16-7.176-16-16
	s7.176-16,16-16h16C312.824,184,320,191.176,320,200z M224,200c0,8.824-7.176,16-16,16h-16c-8.824,0-16-7.176-16-16s7.176-16,16-16
	h16C216.824,184,224,191.176,224,200z M248,48c54.648,0,99.48,42.392,103.592,96H144.408C148.52,90.392,193.352,48,248,48z
	 M282.28,286.344c-9.472,9.48-17.648,17.656-34.336,17.656s-24.872-8.176-34.344-17.656C203.128,275.864,191.256,264,167.936,264
	c-0.64,0-1.192,0.096-1.816,0.12c-12.816-16.336-20.256-35.592-21.792-56.12h16.808c3.576,13.768,16,24,30.864,24h16
	c14.864,0,27.288-10.232,30.864-24h18.272c3.576,13.768,16,24,30.864,24h16c14.864,0,27.288-10.232,30.864-24h16.808
	c-1.536,20.528-8.984,39.792-21.8,56.128c-0.672-0.024-1.256-0.128-1.944-0.128C304.616,264,292.752,275.864,282.28,286.344z"/>
<rect x="448" y="160" width="16" height="16"/>
<rect x="480" y="24" width="16" height="16"/>
<rect x="368" y="64" width="16" height="16"/>
<rect x="112" y="40" width="16" height="16"/>
<rect x="96" y="192" width="16" height="16"/>
<rect y="48" width="16" height="16"/>
<g>
</g>
<g>
</g>
<g>
</g>
<g>
</g>
<g>
</g>
<g>
</g>
<g>
</g>
<g>
</g>
<g>
</g>
<g>
</g>
<g>
</g>
<g>
</g>
<g>
</g>
<g>
</g>
<g>
</g>
</svg>
